<svg xmlns="http://www.w3.org/2000/svg" width="335" height="335" viewBox="0 0 335 335" role="img" aria-label="Куда Себет">
  <rect width="335" height="335" fill="#FF6900"/>
  <g fill="#FFFFFF" transform="translate(167.5 167.5)">
    <polygon points="-8,0 8,0 24,-122 -24,-122"/>
    <polygon points="-8,0 8,0 24,-122 -24,-122" transform="rotate(60)"/>
    <polygon points="-8,0 8,0 24,-122 -24,-122" transform="rotate(120)"/>
    <polygon points="-8,0 8,0 24,-122 -24,-122" transform="rotate(180)"/>
    <polygon points="-8,0 8,0 24,-122 -24,-122" transform="rotate(240)"/>
    <polygon points="-8,0 8,0 24,-122 -24,-122" transform="rotate(300)"/>
    <circle cx="0" cy="0" r="14"/>
  </g>
</svg>
